<?xml version="1.0" encoding="utf-8"?>
<!-- Generator: Adobe Illustrator 26.0.1, SVG Export Plug-In . SVG Version: 6.00 Build 0)  -->
<svg version="1.1" id="Layer_1" xmlns="http://www.w3.org/2000/svg" xmlns:xlink="http://www.w3.org/1999/xlink" x="0px" y="0px"
	 viewBox="0 0 200 200" style="enable-background:new 0 0 200 200;" xml:space="preserve">
<style type="text/css">
	.st0{fill:#1E1E1C;}
</style>
<path class="st0" d="M131.2,51.8H68.9c-9.4,0-17.2,7.6-17.2,17.1v62.3c0,9.4,7.6,17.1,17.2,17.1h62.3c9.4,0,17.1-7.6,17.1-17.1V68.9
	C148.3,59.4,140.6,51.8,131.2,51.8z M84.6,75.5c1.4,0,2.8,0,4.2,0c0-3.2,0-6.5,0-9.8c-0.1-1.5,1.1-2.8,2.5-2.8
	c1.4,0,2.6,1.4,2.5,2.9c0,3.2,0,6.4,0,9.7c4.2,0,8.5,0,12.6,0c0-3.2,0-6.2,0.1-9.4c-0.1-1.7,1.1-3.1,2.6-3.1c1.5,0,2.9,1.4,2.8,3.2
	c0,3.2,0,6.2,0,9.4c1.2,0,2.4,0,3.6,0c0,2.4,0,4.6,0,6.9c-10.3,0-20.5,0-30.8,0C84.6,80.2,84.6,77.9,84.6,75.5z M118.4,131
	c-1,0.8-1.9,1-2.4,1.1c-17.2,0.6-29.7,0.6-32.2,0c-1.8-0.4-2.8-1.5-2.8-1.5c-0.7-0.8-1-1.8-1.1-2.5c0-12.2,0-24.4,0-36.6
	c13.3,0,26.6,0,39.9,0c0,12.2,0,24.4,0,36.7C120,128.6,119.7,130,118.4,131z"/>
</svg>
