<?xml version="1.0" encoding="utf-8"?>
<!-- Generator: Adobe Illustrator 26.0.1, SVG Export Plug-In . SVG Version: 6.00 Build 0)  -->
<svg version="1.1" id="Layer_1" xmlns="http://www.w3.org/2000/svg" xmlns:xlink="http://www.w3.org/1999/xlink" x="0px" y="0px"
	 viewBox="0 0 230 120" style="enable-background:new 0 0 230 120;" xml:space="preserve">
<style type="text/css">
	.st0{fill:#1D1D1B;}
</style>
<g>
	<g>
		<path class="st0" d="M103.1,47.3h8.1c5.2,0,9.3,1.8,9.3,7.5c0,5.5-4.2,8-9.2,8h-2.9v8h-5.3L103.1,47.3L103.1,47.3z M110.9,58.6
			c2.9,0,4.3-1.3,4.3-3.7c0-2.5-1.6-3.3-4.4-3.3h-2.4v7.1C108.4,58.6,110.9,58.6,110.9,58.6z"/>
		<path class="st0" d="M124.1,65.2V45.5h5.3v19.9c0,1.1,0.5,1.5,1,1.5c0.2,0,0.4,0,0.6-0.1l0.6,3.9c-0.6,0.2-1.4,0.4-2.7,0.4
			C125.3,71.2,124.1,68.8,124.1,65.2z"/>
		<path class="st0" d="M134.2,64V52.9h5.3v10.4c0,2.6,0.7,3.4,2.2,3.4c1.3,0,2.1-0.6,3.2-2V52.9h5.3v17.9h-4.3l-0.4-2.5h-0.1
			c-1.5,1.8-3.2,2.9-5.6,2.9C135.8,71.2,134.2,68.4,134.2,64z"/>
		<path class="st0" d="M153.7,73.8c0-1.5,0.9-2.7,2.5-3.6v-0.1c-0.9-0.6-1.6-1.6-1.6-3c0-1.3,0.9-2.6,2-3.3v-0.1
			c-1.3-0.9-2.4-2.5-2.4-4.6c0-4.3,3.5-6.5,7.4-6.5c1,0,2,0.2,2.8,0.4h6.5v3.8H168c0.3,0.5,0.6,1.4,0.6,2.3c0,4.1-3.1,6-7,6
			c-0.6,0-1.4-0.1-2.2-0.3c-0.4,0.4-0.6,0.7-0.6,1.3c0,0.9,0.7,1.3,2.7,1.3h2.9c4.4,0,6.8,1.3,6.8,4.5c0,3.7-3.9,6.4-10,6.4
			C157,78.4,153.7,77,153.7,73.8z M166.1,72.8c0-1.1-1-1.4-2.7-1.4h-1.9c-1.2,0-1.9-0.1-2.5-0.2c-0.7,0.6-1,1.1-1,1.8
			c0,1.3,1.6,2.1,4,2.1C164.4,75,166.1,74.1,166.1,72.8z M164,58.9c0-1.9-1-2.9-2.4-2.9s-2.4,1-2.4,2.9c0,2,1,3,2.4,3
			S164,60.9,164,58.9z"/>
		<path class="st0" d="M174.5,47.3h5.3v23.5h-5.3V47.3z"/>
		<path class="st0" d="M185.3,47.3h5.4l6.1,11.7l2.3,5.2h0.1c-0.2-2.5-0.7-5.8-0.7-8.5v-8.3h5.1v23.5h-5.4l-6.1-11.7l-2.3-5.1h-0.1
			c0.2,2.6,0.7,5.7,0.7,8.5v8.3h-5.1V47.3z"/>
	</g>
</g>
<path class="st0" d="M76.7,25.2H31.8c-6.8,0-12.4,5.5-12.4,12.3v44.9c0,6.8,5.5,12.3,12.4,12.3h44.9c6.8,0,12.3-5.5,12.3-12.3V37.5
	C89,30.7,83.5,25.2,76.7,25.2z M43.1,42.3c1,0,2,0,3,0c0-2.3,0-4.7,0-7.1c-0.1-1.1,0.8-2,1.8-2c1,0,1.9,1,1.8,2.1c0,2.3,0,4.6,0,7
	c3,0,6.1,0,9.1,0c0-2.3,0-4.5,0.1-6.8c-0.1-1.2,0.8-2.2,1.9-2.2c1.1,0,2.1,1,2,2.3c0,2.3,0,4.5,0,6.8c0.9,0,1.7,0,2.6,0
	c0,1.7,0,3.3,0,5c-7.4,0-14.8,0-22.2,0C43.1,45.7,43.1,44,43.1,42.3z M67.5,82.3c-0.7,0.6-1.4,0.7-1.7,0.8
	c-12.4,0.4-21.4,0.4-23.2,0c-1.3-0.3-2-1.1-2-1.1c-0.5-0.6-0.7-1.3-0.8-1.8c0-8.8,0-17.6,0-26.4c9.6,0,19.2,0,28.8,0
	c0,8.8,0,17.6,0,26.5C68.6,80.6,68.4,81.6,67.5,82.3z"/>
</svg>
