<?xml version="1.0" encoding="utf-8"?>
<!-- Generator: Adobe Illustrator 26.0.1, SVG Export Plug-In . SVG Version: 6.00 Build 0)  -->
<svg version="1.1" id="Layer_1" xmlns="http://www.w3.org/2000/svg" xmlns:xlink="http://www.w3.org/1999/xlink" x="0px" y="0px"
	 viewBox="0 0 230 120" style="enable-background:new 0 0 230 120;" xml:space="preserve">
<style type="text/css">
	.st0{fill:#475459;}
</style>
<g>
	<g>
		<path class="st0" d="M103.05,47.3h8.06c5.16,0,9.33,1.85,9.33,7.55c0,5.51-4.21,7.95-9.18,7.95h-2.9v7.96h-5.3V47.3z
			 M110.94,58.59c2.92,0,4.3-1.3,4.3-3.74c0-2.46-1.57-3.34-4.44-3.34h-2.44v7.08H110.94z"/>
		<path class="st0" d="M124.06,65.21V45.55h5.29v19.88c0,1.13,0.53,1.5,0.96,1.5c0.2,0,0.35,0,0.65-0.07l0.63,3.9
			c-0.58,0.25-1.45,0.44-2.66,0.44C125.3,71.19,124.06,68.83,124.06,65.21z"/>
		<path class="st0" d="M134.19,63.99V52.9h5.29v10.41c0,2.57,0.69,3.37,2.22,3.37c1.33,0,2.14-0.56,3.17-1.96V52.9h5.29v17.86h-4.32
			l-0.38-2.48h-0.13c-1.49,1.78-3.17,2.91-5.61,2.91C135.84,71.19,134.19,68.45,134.19,63.99z"/>
		<path class="st0" d="M153.71,73.83c0-1.48,0.89-2.68,2.53-3.59v-0.14c-0.92-0.62-1.63-1.56-1.63-3.03c0-1.29,0.86-2.55,1.99-3.35
			v-0.14c-1.26-0.88-2.4-2.54-2.4-4.63c0-4.29,3.54-6.46,7.39-6.46c1,0,1.96,0.16,2.77,0.43h6.53v3.85h-2.87
			c0.33,0.53,0.6,1.42,0.6,2.35c0,4.11-3.12,6-7.03,6c-0.65,0-1.39-0.11-2.18-0.35c-0.44,0.38-0.62,0.7-0.62,1.33
			c0,0.88,0.72,1.31,2.67,1.31h2.9c4.38,0,6.82,1.34,6.82,4.54c0,3.71-3.87,6.41-10,6.41C157.02,78.36,153.71,77,153.71,73.83z
			 M166.11,72.85c0-1.13-0.97-1.38-2.72-1.38h-1.85c-1.22,0-1.92-0.07-2.5-0.23c-0.66,0.56-0.96,1.11-0.96,1.75
			c0,1.35,1.57,2.05,3.96,2.05C164.4,75.03,166.11,74.08,166.11,72.85z M164.03,58.94c0-1.9-1.03-2.9-2.44-2.9s-2.44,0.99-2.44,2.9
			c0,1.96,1.04,2.98,2.44,2.98S164.03,60.89,164.03,58.94z"/>
		<path class="st0" d="M174.47,47.3h5.3v23.46h-5.3V47.3z"/>
		<path class="st0" d="M185.3,47.3h5.43l6.12,11.67l2.32,5.15h0.14c-0.25-2.48-0.68-5.77-0.68-8.53V47.3h5.05v23.46h-5.43
			l-6.12-11.7l-2.32-5.12h-0.14c0.25,2.59,0.68,5.73,0.68,8.5v8.33h-5.05V47.3z"/>
	</g>
</g>
<path class="st0" d="M76.68,25.18H31.75c-6.82,0-12.35,5.53-12.35,12.35v44.93c0,6.82,5.53,12.35,12.35,12.35h44.93
	c6.82,0,12.35-5.53,12.35-12.35V37.54C89.03,30.71,83.5,25.18,76.68,25.18z M43.12,42.33c0.99-0.01,1.97-0.02,2.96-0.03
	c0-2.35-0.01-4.71-0.01-7.06c-0.06-1.1,0.82-2,1.84-2c1.05,0,1.94,0.97,1.81,2.1c0.01,2.32,0.01,4.64,0.02,6.96
	c3.03,0,6.06-0.01,9.09-0.01c0.02-2.27,0.05-4.55,0.07-6.82c-0.1-1.2,0.84-2.2,1.88-2.22c1.1-0.03,2.11,1.03,1.97,2.3
	c-0.02,2.26-0.04,4.51-0.05,6.77c0.86,0.01,1.73,0.01,2.59,0.02c0.01,1.68,0.01,3.35,0.02,5.03c-7.4,0.01-14.81,0.01-22.21,0.02
	C43.11,45.7,43.12,44.02,43.12,42.33z M67.53,82.34c-0.68,0.59-1.41,0.74-1.72,0.79c-12.36,0.43-21.42,0.42-23.22,0.01
	c-1.32-0.3-2.01-1.1-2.01-1.1c-0.53-0.62-0.7-1.35-0.76-1.84c0-8.79,0.01-17.57,0.01-26.36c9.59,0.01,19.17,0.02,28.76,0.03
	c0.01,8.82,0.02,17.64,0.03,26.46C68.57,80.62,68.39,81.59,67.53,82.34z"/>
</svg>
